<?xml version="1.0" encoding="UTF-8"?>
<svg xmlns="http://www.w3.org/2000/svg" xmlns:xlink="http://www.w3.org/1999/xlink" width="375pt" height="374.999991pt" viewBox="0 0 375 374.999991" version="1.2">
<defs>
<clipPath id="clip1">
  <path d="M 279 196 L 337.5 196 L 337.5 256 L 279 256 Z M 279 196 "/>
</clipPath>
<clipPath id="clip2">
  <path d="M 76 292 L 274 292 L 274 327.5625 L 76 327.5625 Z M 76 292 "/>
</clipPath>
<clipPath id="clip3">
  <path d="M 37.5 247 L 276 247 L 276 301 L 37.5 301 Z M 37.5 247 "/>
</clipPath>
</defs>
<g id="surface1">
<path style=" stroke:none;fill-rule:nonzero;fill:rgb(100%,100%,100%);fill-opacity:1;" d="M 209.703125 223.359375 C 197.3125 245.011719 144.578125 248.917969 121.683594 247.214844 C 135.957031 259.046875 211.1875 254.933594 209.703125 223.359375 "/>
<path style=" stroke:none;fill-rule:nonzero;fill:rgb(100%,100%,100%);fill-opacity:1;" d="M 194.140625 148.574219 C 193.25 146.96875 191.167969 146.367188 189.582031 147.269531 L 179.472656 153.285156 L 179.472656 141.355469 C 179.472656 139.550781 177.984375 138.046875 176.097656 138.046875 C 174.316406 138.046875 172.730469 139.550781 172.730469 141.355469 L 172.730469 153.285156 L 162.621094 147.269531 C 161.035156 146.367188 158.953125 146.96875 158.0625 148.574219 C 157.167969 150.175781 157.664062 152.179688 159.25 153.183594 L 169.460938 159.097656 L 159.25 165.015625 C 157.664062 165.914062 157.167969 168.019531 158.0625 169.625 C 158.953125 171.226562 161.035156 171.828125 162.621094 170.828125 L 172.730469 164.914062 L 172.730469 176.84375 C 172.730469 178.648438 174.316406 180.152344 176.097656 180.152344 C 177.984375 180.152344 179.472656 178.648438 179.472656 176.84375 L 179.472656 164.914062 L 189.582031 170.828125 C 191.167969 171.828125 193.25 171.226562 194.140625 169.625 C 195.128906 168.019531 194.535156 165.914062 192.949219 165.015625 L 182.742188 159.097656 L 192.949219 153.183594 C 194.535156 152.179688 195.128906 150.175781 194.140625 148.574219 "/>
<path style=" stroke:none;fill-rule:nonzero;fill:rgb(100%,100%,100%);fill-opacity:1;" d="M 246.871094 185.765625 C 245.980469 184.261719 244.097656 183.757812 242.609375 184.5625 L 233.09375 190.175781 L 233.09375 179.046875 C 233.09375 177.34375 231.609375 175.839844 229.921875 175.839844 C 228.238281 175.839844 226.75 177.34375 226.75 179.046875 L 226.75 190.175781 L 217.234375 184.5625 C 215.75 183.757812 213.867188 184.261719 212.972656 185.765625 C 212.082031 187.269531 212.578125 189.273438 214.0625 190.074219 L 223.675781 195.6875 L 214.0625 201.203125 C 212.578125 202.105469 212.082031 204.007812 212.972656 205.511719 C 213.867188 207.117188 215.75 207.621094 217.234375 206.714844 L 226.75 201.203125 L 226.75 212.332031 C 226.75 214.035156 228.238281 215.4375 229.921875 215.4375 C 231.609375 215.4375 233.09375 214.035156 233.09375 212.332031 L 233.09375 201.203125 L 242.609375 206.714844 C 244.097656 207.621094 245.980469 207.117188 246.871094 205.511719 C 247.765625 204.007812 247.167969 202.105469 245.683594 201.203125 L 236.167969 195.6875 L 245.683594 190.074219 C 247.167969 189.273438 247.765625 187.269531 246.871094 185.765625 "/>
<path style=" stroke:none;fill-rule:nonzero;fill:rgb(100%,100%,100%);fill-opacity:1;" d="M 147.847656 200.800781 C 168.566406 217.644531 191.859375 209.222656 203.257812 185.964844 C 184.328125 202.003906 164.800781 210.625 147.949219 188.570312 C 101.660156 127.921875 215.847656 78 259.261719 152.582031 C 288.699219 203.308594 235.472656 244.808594 196.914062 260.851562 C 258.667969 252.828125 311.101562 188.070312 261.34375 131.027344 C 192.253906 51.636719 80.351562 145.464844 147.847656 200.800781 "/>
<path style=" stroke:none;fill-rule:nonzero;fill:rgb(100%,100%,100%);fill-opacity:1;" d="M 291.871094 174.335938 L 300 172.03125 L 297.820312 180.351562 C 297.523438 181.652344 298.214844 182.957031 299.503906 183.359375 C 300.792969 183.65625 302.183594 182.957031 302.476562 181.652344 L 304.660156 173.335938 L 310.703125 179.449219 C 311.597656 180.351562 313.183594 180.351562 314.074219 179.449219 C 315.066406 178.445312 315.066406 176.945312 314.074219 175.941406 L 308.128906 169.925781 L 316.257812 167.71875 C 317.546875 167.320312 318.335938 166.015625 317.941406 164.710938 C 317.640625 163.410156 316.355469 162.605469 315.066406 163.007812 L 306.839844 165.214844 L 309.019531 156.894531 C 309.417969 155.589844 308.625 154.289062 307.335938 153.886719 C 306.046875 153.585938 304.757812 154.386719 304.359375 155.691406 L 302.183594 163.910156 L 296.234375 157.894531 C 295.242188 156.894531 293.757812 156.894531 292.765625 157.894531 C 291.871094 158.796875 291.871094 160.402344 292.765625 161.304688 L 298.808594 167.417969 L 290.582031 169.625 C 289.296875 169.925781 288.601562 171.226562 288.898438 172.53125 C 289.195312 173.835938 290.582031 174.636719 291.871094 174.335938 "/>
<path style=" stroke:none;fill-rule:nonzero;fill:rgb(100%,100%,100%);fill-opacity:1;" d="M 212.179688 157.996094 C 212.773438 159 214.0625 159.296875 215.054688 158.695312 L 221.398438 154.988281 L 221.398438 162.40625 C 221.398438 163.609375 222.386719 164.511719 223.480469 164.511719 C 224.667969 164.511719 225.5625 163.609375 225.5625 162.40625 L 225.5625 154.988281 L 231.90625 158.695312 C 232.894531 159.296875 234.183594 159 234.78125 157.996094 C 235.371094 156.996094 234.976562 155.691406 233.988281 155.089844 L 227.644531 151.378906 L 233.988281 147.671875 C 234.976562 147.070312 235.371094 145.765625 234.78125 144.761719 C 234.183594 143.761719 232.894531 143.460938 231.90625 143.960938 L 225.5625 147.671875 L 225.5625 140.25 C 225.5625 139.152344 224.667969 138.144531 223.480469 138.144531 C 222.386719 138.144531 221.398438 139.152344 221.398438 140.25 L 221.398438 147.671875 L 215.054688 143.960938 C 214.0625 143.460938 212.773438 143.761719 212.179688 144.761719 C 211.683594 145.765625 211.980469 147.070312 212.972656 147.671875 L 219.316406 151.378906 L 212.972656 155.089844 C 211.980469 155.691406 211.683594 156.996094 212.179688 157.996094 "/>
<g clip-path="url(#clip1)" clip-rule="nonzero">
<path style=" stroke:none;fill-rule:nonzero;fill:rgb(100%,100%,100%);fill-opacity:1;" d="M 336.875 218.34375 C 336.179688 215.738281 333.5 214.234375 331.023438 214.9375 L 314.867188 219.347656 L 319.132812 203.007812 C 319.824219 200.402344 318.335938 197.792969 315.859375 197.09375 L 315.757812 197.09375 C 313.28125 196.390625 310.703125 197.894531 310.007812 200.5 L 305.648438 216.84375 L 293.851562 204.910156 C 291.972656 203.007812 288.996094 203.007812 287.113281 204.910156 C 285.230469 206.714844 285.230469 209.824219 287.113281 211.628906 L 298.910156 223.660156 L 282.753906 227.96875 C 280.273438 228.671875 278.691406 231.378906 279.382812 233.882812 C 280.078125 236.488281 282.753906 237.996094 285.230469 237.292969 L 301.386719 232.882812 L 297.027344 249.222656 C 296.433594 251.828125 297.917969 254.433594 300.394531 255.136719 C 302.976562 255.835938 305.550781 254.335938 306.246094 251.726562 L 310.605469 235.386719 L 322.402344 247.417969 C 324.285156 249.222656 327.257812 249.222656 329.140625 247.417969 C 331.023438 245.511719 331.023438 242.402344 329.140625 240.601562 L 317.34375 228.570312 L 333.5 224.257812 C 335.980469 223.558594 337.464844 220.851562 336.875 218.34375 "/>
</g>
<path style=" stroke:none;fill-rule:nonzero;fill:rgb(100%,100%,100%);fill-opacity:1;" d="M 143.988281 217.644531 C 128.621094 205.410156 117.816406 197.695312 111.871094 178.046875 C 91.253906 110.179688 155.085938 86.121094 209.207031 81.707031 C 81.9375 47.824219 59.929688 197.394531 143.988281 217.644531 "/>
<path style=" stroke:none;fill-rule:nonzero;fill:rgb(100%,100%,100%);fill-opacity:1;" d="M 305.847656 272.277344 L 297.621094 274.480469 L 299.804688 266.261719 C 300.199219 264.960938 299.40625 263.558594 298.117188 263.253906 C 296.828125 262.855469 295.539062 263.65625 295.140625 264.960938 L 292.960938 273.179688 L 287.015625 267.164062 C 286.023438 266.261719 284.535156 266.261719 283.546875 267.164062 C 282.652344 268.167969 282.652344 269.671875 283.546875 270.574219 L 289.59375 276.6875 L 281.363281 278.894531 C 280.078125 279.195312 279.285156 280.597656 279.679688 281.902344 C 279.980469 283.203125 281.363281 283.90625 282.652344 283.605469 L 290.78125 281.402344 L 288.601562 289.621094 C 288.304688 290.921875 288.996094 292.324219 290.285156 292.628906 C 291.574219 293.027344 292.960938 292.226562 293.261719 290.921875 L 295.441406 282.605469 L 301.488281 288.71875 C 302.378906 289.621094 303.964844 289.621094 304.855469 288.71875 C 305.75 287.714844 305.75 286.210938 304.855469 285.210938 L 298.910156 279.195312 L 307.039062 276.988281 C 308.324219 276.589844 309.121094 275.285156 308.722656 273.980469 C 308.425781 272.679688 307.039062 271.875 305.847656 272.277344 "/>
<g clip-path="url(#clip2)" clip-rule="nonzero">
<path style=" stroke:none;fill-rule:nonzero;fill:rgb(100%,100%,100%);fill-opacity:1;" d="M 273.933594 292.125 C 230.21875 325.308594 128.820312 312.675781 76.085938 322 C 105.03125 329.816406 257.277344 336.136719 273.933594 292.125 "/>
</g>
<g clip-path="url(#clip3)" clip-rule="nonzero">
<path style=" stroke:none;fill-rule:nonzero;fill:rgb(100%,100%,100%);fill-opacity:1;" d="M 37.53125 283.804688 C 99.28125 307.566406 232.992188 315.183594 275.417969 247.917969 C 209.601562 307.964844 119.007812 282.902344 37.53125 283.804688 "/>
</g>
</g>
</svg>
