<?xml version="1.0" encoding="UTF-8"?>
<svg xmlns="http://www.w3.org/2000/svg" xmlns:xlink="http://www.w3.org/1999/xlink" width="375pt" height="374.999991pt" viewBox="0 0 375 374.999991" version="1.2">
<defs>
<clipPath id="clip1">
  <path d="M 279 197 L 337.5 197 L 337.5 256 L 279 256 Z M 279 197 "/>
</clipPath>
<clipPath id="clip2">
  <path d="M 76 292.304688 L 274 292.304688 L 274 327.5625 L 76 327.5625 Z M 76 292.304688 "/>
</clipPath>
<clipPath id="clip3">
  <path d="M 37.5 248 L 276 248 L 276 302 L 37.5 302 Z M 37.5 248 "/>
</clipPath>
</defs>
<g id="surface1">
<path style=" stroke:none;fill-rule:nonzero;fill:rgb(38.038635%,69.40918%,90.19928%);fill-opacity:1;" d="M 209.703125 223.59375 C 197.3125 245.273438 144.578125 249.191406 121.683594 247.480469 C 135.957031 259.328125 211.1875 255.214844 209.703125 223.59375 "/>
<path style=" stroke:none;fill-rule:nonzero;fill:rgb(38.038635%,69.40918%,90.19928%);fill-opacity:1;" d="M 194.140625 148.707031 C 193.25 147.101562 191.167969 146.5 189.582031 147.402344 L 179.472656 153.425781 L 179.472656 141.480469 C 179.472656 139.675781 177.984375 138.167969 176.097656 138.167969 C 174.316406 138.167969 172.730469 139.675781 172.730469 141.480469 L 172.730469 153.425781 L 162.621094 147.402344 C 161.035156 146.5 158.953125 147.101562 158.0625 148.707031 C 157.167969 150.316406 157.664062 152.320312 159.25 153.324219 L 169.460938 159.246094 L 159.25 165.171875 C 157.664062 166.074219 157.167969 168.183594 158.0625 169.789062 C 158.953125 171.394531 161.035156 171.996094 162.621094 170.992188 L 172.730469 165.070312 L 172.730469 177.015625 C 172.730469 178.824219 174.316406 180.328125 176.097656 180.328125 C 177.984375 180.328125 179.472656 178.824219 179.472656 177.015625 L 179.472656 165.070312 L 189.582031 170.992188 C 191.167969 171.996094 193.25 171.394531 194.140625 169.789062 C 195.128906 168.183594 194.535156 166.074219 192.949219 165.171875 L 182.742188 159.246094 L 192.949219 153.324219 C 194.535156 152.320312 195.128906 150.316406 194.140625 148.707031 "/>
<path style=" stroke:none;fill-rule:nonzero;fill:rgb(38.038635%,69.40918%,90.19928%);fill-opacity:1;" d="M 246.871094 185.949219 C 245.980469 184.445312 244.097656 183.941406 242.609375 184.746094 L 233.09375 190.367188 L 233.09375 179.222656 C 233.09375 177.515625 231.609375 176.011719 229.921875 176.011719 C 228.238281 176.011719 226.75 177.515625 226.75 179.222656 L 226.75 190.367188 L 217.234375 184.746094 C 215.75 183.941406 213.867188 184.445312 212.972656 185.949219 C 212.082031 187.457031 212.578125 189.460938 214.0625 190.265625 L 223.675781 195.886719 L 214.0625 201.410156 C 212.578125 202.3125 212.082031 204.21875 212.972656 205.726562 C 213.867188 207.332031 215.75 207.832031 217.234375 206.929688 L 226.75 201.410156 L 226.75 212.550781 C 226.75 214.257812 228.238281 215.664062 229.921875 215.664062 C 231.609375 215.664062 233.09375 214.257812 233.09375 212.550781 L 233.09375 201.410156 L 242.609375 206.929688 C 244.097656 207.832031 245.980469 207.332031 246.871094 205.726562 C 247.765625 204.21875 247.167969 202.3125 245.683594 201.410156 L 236.167969 195.886719 L 245.683594 190.265625 C 247.167969 189.460938 247.765625 187.457031 246.871094 185.949219 "/>
<path style=" stroke:none;fill-rule:nonzero;fill:rgb(38.038635%,69.40918%,90.19928%);fill-opacity:1;" d="M 147.847656 201.007812 C 168.566406 217.871094 191.859375 209.4375 203.257812 186.148438 C 184.328125 202.210938 164.800781 210.84375 147.949219 188.757812 C 101.660156 128.03125 215.847656 78.039062 259.261719 152.722656 C 288.699219 203.515625 235.472656 245.074219 196.914062 261.136719 C 258.667969 253.105469 311.101562 188.257812 261.34375 131.140625 C 192.253906 51.640625 80.351562 145.597656 147.847656 201.007812 "/>
<path style=" stroke:none;fill-rule:nonzero;fill:rgb(38.038635%,69.40918%,90.19928%);fill-opacity:1;" d="M 291.871094 174.507812 L 300 172.195312 L 297.820312 180.53125 C 297.523438 181.832031 298.214844 183.140625 299.503906 183.539062 C 300.792969 183.839844 302.183594 183.140625 302.476562 181.832031 L 304.660156 173.503906 L 310.703125 179.625 C 311.597656 180.53125 313.183594 180.53125 314.074219 179.625 C 315.066406 178.621094 315.066406 177.117188 314.074219 176.113281 L 308.128906 170.089844 L 316.257812 167.878906 C 317.546875 167.480469 318.335938 166.175781 317.941406 164.871094 C 317.640625 163.5625 316.355469 162.761719 315.066406 163.164062 L 306.839844 165.371094 L 309.019531 157.039062 C 309.417969 155.734375 308.625 154.429688 307.335938 154.027344 C 306.046875 153.726562 304.757812 154.53125 304.359375 155.835938 L 302.183594 164.066406 L 296.234375 158.042969 C 295.242188 157.039062 293.757812 157.039062 292.765625 158.042969 C 291.871094 158.949219 291.871094 160.554688 292.765625 161.457031 L 298.808594 167.582031 L 290.582031 169.789062 C 289.296875 170.089844 288.601562 171.394531 288.898438 172.699219 C 289.195312 174.003906 290.582031 174.808594 291.871094 174.507812 "/>
<path style=" stroke:none;fill-rule:nonzero;fill:rgb(38.038635%,69.40918%,90.19928%);fill-opacity:1;" d="M 212.179688 158.144531 C 212.773438 159.148438 214.0625 159.449219 215.054688 158.847656 L 221.398438 155.132812 L 221.398438 162.558594 C 221.398438 163.765625 222.386719 164.667969 223.480469 164.667969 C 224.667969 164.667969 225.5625 163.765625 225.5625 162.558594 L 225.5625 155.132812 L 231.90625 158.847656 C 232.894531 159.449219 234.183594 159.148438 234.78125 158.144531 C 235.371094 157.140625 234.976562 155.835938 233.988281 155.234375 L 227.644531 151.519531 L 233.988281 147.804688 C 234.976562 147.203125 235.371094 145.898438 234.78125 144.894531 C 234.183594 143.890625 232.894531 143.589844 231.90625 144.089844 L 225.5625 147.804688 L 225.5625 140.375 C 225.5625 139.273438 224.667969 138.265625 223.480469 138.265625 C 222.386719 138.265625 221.398438 139.273438 221.398438 140.375 L 221.398438 147.804688 L 215.054688 144.089844 C 214.0625 143.589844 212.773438 143.890625 212.179688 144.894531 C 211.683594 145.898438 211.980469 147.203125 212.972656 147.804688 L 219.316406 151.519531 L 212.972656 155.234375 C 211.980469 155.835938 211.683594 157.140625 212.179688 158.144531 "/>
<g clip-path="url(#clip1)" clip-rule="nonzero">
<path style=" stroke:none;fill-rule:nonzero;fill:rgb(38.038635%,69.40918%,90.19928%);fill-opacity:1;" d="M 336.875 218.574219 C 336.179688 215.964844 333.5 214.460938 331.023438 215.160156 L 314.867188 219.578125 L 319.132812 203.214844 C 319.824219 200.605469 318.335938 197.992188 315.859375 197.292969 L 315.757812 197.292969 C 313.28125 196.589844 310.703125 198.09375 310.007812 200.703125 L 305.648438 217.070312 L 293.851562 205.121094 C 291.972656 203.214844 288.996094 203.214844 287.113281 205.121094 C 285.230469 206.929688 285.230469 210.042969 287.113281 211.847656 L 298.910156 223.894531 L 282.753906 228.210938 C 280.273438 228.914062 278.691406 231.625 279.382812 234.132812 C 280.078125 236.742188 282.753906 238.25 285.230469 237.546875 L 301.386719 233.128906 L 297.027344 249.492188 C 296.433594 252.101562 297.917969 254.710938 300.394531 255.414062 C 302.976562 256.117188 305.550781 254.613281 306.246094 252 L 310.605469 235.636719 L 322.402344 247.6875 C 324.285156 249.492188 327.257812 249.492188 329.140625 247.6875 C 331.023438 245.777344 331.023438 242.664062 329.140625 240.859375 L 317.34375 228.8125 L 333.5 224.496094 C 335.980469 223.792969 337.464844 221.082031 336.875 218.574219 "/>
</g>
<path style=" stroke:none;fill-rule:nonzero;fill:rgb(38.038635%,69.40918%,90.19928%);fill-opacity:1;" d="M 143.988281 217.871094 C 128.621094 205.625 117.816406 197.894531 111.871094 178.21875 C 91.253906 110.261719 155.085938 86.171875 209.207031 81.753906 C 81.9375 47.824219 59.929688 197.59375 143.988281 217.871094 "/>
<path style=" stroke:none;fill-rule:nonzero;fill:rgb(38.038635%,69.40918%,90.19928%);fill-opacity:1;" d="M 305.847656 272.578125 L 297.621094 274.785156 L 299.804688 266.554688 C 300.199219 265.25 299.40625 263.847656 298.117188 263.542969 C 296.828125 263.144531 295.539062 263.945312 295.140625 265.25 L 292.960938 273.484375 L 287.015625 267.460938 C 286.023438 266.554688 284.535156 266.554688 283.546875 267.460938 C 282.652344 268.460938 282.652344 269.96875 283.546875 270.875 L 289.59375 276.996094 L 281.363281 279.203125 C 280.078125 279.507812 279.285156 280.910156 279.679688 282.214844 C 279.980469 283.519531 281.363281 284.226562 282.652344 283.921875 L 290.78125 281.714844 L 288.601562 289.945312 C 288.304688 291.25 288.996094 292.65625 290.285156 292.957031 C 291.574219 293.359375 292.960938 292.554688 293.261719 291.25 L 295.441406 282.917969 L 301.488281 289.042969 C 302.378906 289.945312 303.964844 289.945312 304.855469 289.042969 C 305.75 288.039062 305.75 286.53125 304.855469 285.527344 L 298.910156 279.507812 L 307.039062 277.296875 C 308.324219 276.894531 309.121094 275.589844 308.722656 274.285156 C 308.425781 272.980469 307.039062 272.175781 305.847656 272.578125 "/>
<g clip-path="url(#clip2)" clip-rule="nonzero">
<path style=" stroke:none;fill-rule:nonzero;fill:rgb(38.038635%,69.40918%,90.19928%);fill-opacity:1;" d="M 273.933594 292.453125 C 230.21875 325.683594 128.820312 313.03125 76.085938 322.371094 C 105.03125 330.195312 257.277344 336.523438 273.933594 292.453125 "/>
</g>
<g clip-path="url(#clip3)" clip-rule="nonzero">
<path style=" stroke:none;fill-rule:nonzero;fill:rgb(38.038635%,69.40918%,90.19928%);fill-opacity:1;" d="M 37.53125 284.121094 C 99.28125 307.914062 232.992188 315.542969 275.417969 248.1875 C 209.601562 308.316406 119.007812 283.21875 37.53125 284.121094 "/>
</g>
</g>
</svg>
